<svg xmlns="http://www.w3.org/2000/svg" version="1.1" xmlns:xlink="http://www.w3.org/1999/xlink" xmlns:svgjs="http://svgjs.com/svgjs" width="1440" height="560" preserveAspectRatio="none" viewBox="0 0 1440 560"><g mask="url(&quot;#SvgjsMask1001&quot;)" fill="none"><rect width="1440" height="560" x="0" y="0" fill="rgba(0, 86, 169, 1)"></rect><path d="M0,643.111C116.789,624.235,203.03,533.495,295.158,459.275C377.794,392.702,455.994,324.323,509.476,232.67C567.411,133.386,624.255,26.171,614.731,-88.385C604.984,-205.614,541.357,-313.978,457.193,-396.16C376.694,-474.763,266.306,-507.938,157.147,-535.194C51.775,-561.504,-54.777,-569.762,-161.697,-550.691C-278.542,-529.85,-395.783,-498.426,-485.384,-420.588C-582.467,-336.25,-683.189,-226.746,-682.626,-98.147C-682.066,29.824,-538.012,105.043,-482.581,220.387C-428.75,332.402,-457.066,483.855,-363.582,565.744C-268.45,649.076,-124.849,663.29,0,643.111" fill="#00417f"></path><path d="M1440 1143.2069999999999C1547.531 1145.761 1639.648 1066.123 1717.708 992.1220000000001 1786.539 926.871 1828.289 840.56 1855.187 749.61 1879.371 667.837 1877.497 583.228 1863.5149999999999 499.108 1849.79 416.53200000000004 1830.007 332.81899999999996 1775.371 269.399 1720.657 205.88799999999998 1636.926 183.457 1560.99 147.945 1470.586 105.66699999999997 1387.423 37.23000000000002 1287.7069999999999 41.339000000000055 1177.749 45.870000000000005 1054.693 81.281 991.5450000000001 171.41199999999998 928.712 261.094 956.931 384.11400000000003 971.515 492.642 983.123 579.024 1033.656 649.831 1066.673 730.4929999999999 1101.407 815.35 1109.134 911.129 1170.643 979.127 1242.627 1058.7060000000001 1332.724 1140.659 1440 1143.2069999999999" fill="#006cd3"></path></g><defs><mask id="SvgjsMask1001"><rect width="1440" height="560" fill="#ffffff"></rect></mask></defs></svg>